<?xml version="1.0" encoding="UTF-8"?>
<svg version="1.1" xmlns="http://www.w3.org/2000/svg" width="512" height="512">
<path d="M0 0 C0.86757935 0.00304138 1.73515869 0.00608276 2.62902832 0.00921631 C55.06611222 0.27983294 102.87921667 22.01609508 139.76904297 58.89355469 C165.18004316 84.80452969 181.35203485 118.29185951 189.3125 153.4375 C189.47766113 154.12553711 189.64282227 154.81357422 189.81298828 155.52246094 C195.06964276 178.14727577 194.69724839 205.88548528 189.3125 228.4375 C189.12445801 229.2821582 188.93641602 230.12681641 188.74267578 230.99707031 C172.60985694 302.74126868 127.59226623 367.76569068 82.3125 424.4375 C81.60609375 425.32695312 80.8996875 426.21640625 80.171875 427.1328125 C72.20312978 437.14080354 64.05702972 446.99399331 55.76269531 456.73291016 C54.29446961 458.45869329 52.83076467 460.18824272 51.3671875 461.91796875 C45.86993255 468.39469206 40.26272377 474.73961155 34.4699707 480.95385742 C31.77854516 483.84144451 29.13570885 486.75667542 26.5625 489.75 C23.63165474 493.14323589 20.49391665 496.27668946 17.296875 499.41796875 C14.70649366 502.05424268 12.32235223 504.84075935 9.953125 507.67578125 C6.92163282 510.93102643 5.01977607 512.31962066 0.5625 513.0625 C-7.11792065 512.69474505 -11.92391538 505.23301779 -16.75 500 C-17.68704773 498.96170382 -18.62320864 497.92260677 -19.55859375 496.8828125 C-22.44010944 493.68859589 -25.39234891 490.56552324 -28.35229492 487.4440918 C-33.98777093 481.49557278 -39.40741912 475.49218802 -44.515625 469.078125 C-46.96793438 466.09654021 -49.55843335 463.26196415 -52.1875 460.4375 C-57.27220166 454.96471363 -62.00801586 449.26160616 -66.6875 443.4375 C-68.14473064 441.66575915 -69.60307854 439.89493667 -71.0625 438.125 C-76.36559262 431.635329 -81.55076441 425.05896538 -86.6875 418.4375 C-87.2954541 417.65552246 -87.9034082 416.87354492 -88.52978516 416.06787109 C-96.96069817 405.19869853 -105.06327417 394.1904248 -112.7421875 382.77734375 C-114.92470478 379.53742718 -117.17239911 376.35938933 -119.48193359 373.20922852 C-150.7527724 330.49521317 -176.88234792 280.20591631 -188.6875 228.4375 C-188.86684082 227.69129395 -189.04618164 226.94508789 -189.23095703 226.17626953 C-199.9826444 180.04117407 -187.29691259 128.92750365 -162.875 89.3125 C-136.59108299 47.70725392 -95.50193149 18.54549033 -48.1875 5.6875 C-47.51420654 5.50098877 -46.84091309 5.31447754 -46.1472168 5.12231445 C-30.92781647 1.20815231 -15.66514715 -0.11753584 0 0 Z " fill="#FA5867" transform="translate(255.6875,-0.4375)"/>
<path d="M0 0 C0.88300781 0.71929687 1.76601563 1.43859375 2.67578125 2.1796875 C3.40410156 2.75460938 4.13242187 3.32953125 4.8828125 3.921875 C23.49588894 19.26756721 36.93226972 44.95872996 39.42578125 68.9296875 C39.53448858 71.01185102 39.61469964 73.09558307 39.67578125 75.1796875 C39.70687988 75.8598291 39.73797852 76.5399707 39.77001953 77.24072266 C40.89860202 103.25483253 33.47417457 129.09559351 15.92578125 148.8046875 C14.52234581 150.27575838 13.10777223 151.73639876 11.67578125 153.1796875 C10.87140625 154.0253125 10.06703125 154.8709375 9.23828125 155.7421875 C8.39265625 156.5465625 7.54703125 157.3509375 6.67578125 158.1796875 C5.65291016 159.17742187 5.65291016 159.17742187 4.609375 160.1953125 C-8.37914031 172.45413594 -24.10928023 179.85447 -41.32421875 184.1796875 C-42.08863281 184.38464844 -42.85304688 184.58960938 -43.640625 184.80078125 C-69.37518597 190.64039211 -97.75550572 184.2366465 -119.96020508 170.78735352 C-126.04929418 166.9161499 -131.21401837 162.27302253 -136.32421875 157.1796875 C-137.17242187 156.33664062 -138.020625 155.49359375 -138.89453125 154.625 C-140.09722656 153.41457031 -140.09722656 153.41457031 -141.32421875 152.1796875 C-141.9584375 151.54289063 -142.59265625 150.90609375 -143.24609375 150.25 C-153.47709656 139.36316368 -159.92253635 126.338376 -164.32421875 112.1796875 C-164.53449707 111.51775391 -164.74477539 110.85582031 -164.96142578 110.17382812 C-169.90437478 94.06521522 -169.88123119 76.6001097 -166.32421875 60.1796875 C-166.12957031 59.19226563 -165.93492187 58.20484375 -165.734375 57.1875 C-164.00531753 49.30954585 -160.9496744 42.35968525 -157.32421875 35.1796875 C-156.84855469 34.21804687 -156.37289062 33.25640625 -155.8828125 32.265625 C-152.41994645 25.56634736 -148.19298097 19.91751884 -143.32421875 14.1796875 C-142.60298828 13.25736328 -142.60298828 13.25736328 -141.8671875 12.31640625 C-129.61362281 -3.0446907 -109.93971582 -13.51843042 -91.32421875 -18.8203125 C-90.32648438 -19.12066406 -89.32875 -19.42101562 -88.30078125 -19.73046875 C-58.27991013 -27.54461801 -24.06684018 -18.93470605 0 0 Z " fill="#D8304C" transform="translate(320.32421875,109.8203125)"/>
</svg>
